<?xml version="1.0" standalone="no"?>
<!DOCTYPE svg PUBLIC "-//W3C//DTD SVG 20010904//EN"
 "http://www.w3.org/TR/2001/REC-SVG-20010904/DTD/svg10.dtd">
<svg version="1.0" xmlns="http://www.w3.org/2000/svg"
 width="168.000000pt" height="154.000000pt" viewBox="0 0 168.000000 154.000000"
 preserveAspectRatio="xMidYMid meet">

<g transform="translate(0.000000,154.000000) scale(0.100000,-0.100000)"
fill="#000000" stroke="none">
<path d="M570 1264 c-154 -41 -290 -187 -335 -359 -18 -70 -19 -216 -2 -265
12 -32 11 -39 -13 -74 -21 -33 -25 -51 -25 -111 0 -93 29 -141 110 -180 50
-25 63 -27 143 -23 73 3 96 9 134 30 118 70 186 211 233 486 l18 103 -33 34
c-19 19 -39 35 -44 35 -6 0 -22 -55 -35 -123 -27 -140 -36 -162 -87 -207 -84
-73 -187 -92 -244 -43 -29 24 -30 27 -13 37 10 5 55 10 101 10 91 0 98 7 53
50 -29 28 -30 28 -98 17 -37 -6 -79 -14 -92 -18 l-24 -6 5 94 c7 112 31 184
95 282 72 108 179 177 277 177 50 0 62 -7 76 -44 13 -36 1 -85 -36 -137 -14
-21 -23 -43 -19 -48 3 -6 29 -11 56 -11 49 0 50 1 69 43 25 54 26 140 2 187
-36 72 -145 98 -272 64z m-264 -735 c15 -25 90 -49 154 -49 52 0 78 6 128 30
34 16 62 28 62 26 0 -13 -37 -88 -61 -123 -79 -114 -248 -131 -309 -30 -22 36
-26 93 -8 132 12 27 23 31 34 14z"/>
<path d="M1117 1173 c-4 -3 -7 -18 -7 -33 0 -49 -92 -365 -123 -424 -31 -58
-80 -106 -94 -93 -4 4 12 64 35 134 40 118 41 128 27 150 -17 26 -61 50 -71
40 -10 -10 -74 -278 -74 -310 0 -35 24 -83 46 -91 30 -11 82 14 115 56 l32 40
13 -37 c17 -50 28 -59 69 -59 25 0 43 8 62 27 l27 27 27 -26 c35 -34 107 -44
143 -21 40 26 49 72 31 156 -20 96 -19 139 5 186 27 53 26 60 -17 90 -36 24
-39 24 -51 8 -21 -27 -152 -296 -152 -311 0 -21 -50 -66 -61 -55 -13 13 10
128 54 273 68 222 68 227 14 261 -35 21 -40 22 -50 12z m169 -465 c9 -42 14
-84 11 -92 -9 -23 -53 -20 -71 6 -19 26 -5 48 30 48 23 0 23 1 9 46 -7 25 -11
52 -8 60 8 22 11 16 29 -68z"/>
<path d="M916 1153 c-3 -3 -6 -41 -6 -83 0 -67 3 -79 23 -98 13 -12 28 -22 33
-22 6 0 16 24 24 53 7 28 15 57 17 63 8 23 -75 103 -91 87z"/>
<path d="M822 388 c-5 -29 -8 -55 -6 -57 7 -8 16 8 24 41 l7 33 18 -37 c10
-21 22 -38 26 -38 5 0 11 17 14 38 4 20 9 45 12 55 2 9 0 17 -5 17 -5 0 -13
-17 -17 -37 l-7 -38 -21 37 c-12 21 -25 38 -28 38 -4 0 -11 -24 -17 -52z"/>
<path d="M1197 421 c-3 -14 -11 -17 -29 -14 -29 6 -51 -17 -46 -49 2 -19 10
-24 41 -26 25 -2 37 1 37 10 1 7 5 32 9 56 8 41 -2 61 -12 23z m-17 -65 c-7
-9 -18 -16 -25 -16 -21 0 -26 28 -8 45 14 15 17 15 31 1 13 -12 13 -18 2 -30z"/>
<path d="M1275 403 c-4 -21 -9 -46 -12 -55 -2 -10 0 -18 6 -18 5 0 13 17 16
38 4 20 9 45 12 55 2 9 0 17 -6 17 -5 0 -13 -17 -16 -37z"/>
<path d="M1325 416 c-6 -6 -10 -27 -10 -46 0 -27 4 -35 20 -37 11 -2 14 0 8 3
-18 8 -16 29 3 48 13 13 13 18 2 29 -10 10 -16 11 -23 3z"/>
<path d="M934 386 c-13 -21 -14 -29 -4 -41 14 -17 56 -20 65 -5 4 7 -2 9 -18
5 -14 -4 -28 -2 -31 4 -5 7 6 11 29 11 32 0 36 3 33 23 -5 34 -52 36 -74 3z
m51 4 c3 -6 -4 -10 -17 -10 -18 0 -20 2 -8 10 19 12 18 12 25 0z"/>
<path d="M1035 394 c-27 -27 -15 -58 23 -62 19 -2 32 1 32 8 0 7 -8 9 -19 5
-11 -3 -22 -1 -26 5 -4 6 6 10 24 10 35 0 48 15 31 35 -16 20 -45 19 -65 -1z
m55 -10 c0 -2 -12 -4 -27 -4 -21 0 -24 3 -14 9 13 8 41 5 41 -5z"/>
</g>
</svg>
